<?xml version="1.0" encoding="UTF-8"?><svg id="Layer_1" xmlns="http://www.w3.org/2000/svg" xmlns:xlink="http://www.w3.org/1999/xlink" viewBox="0 0 116.66 100.56"><defs><linearGradient id="linear-gradient" x1="58.33" y1="0" x2="58.33" y2="100.56" gradientUnits="userSpaceOnUse"><stop offset="0" stop-color="#d99fbb"/><stop offset=".17" stop-color="#a84a72"/><stop offset=".32" stop-color="#593445"/></linearGradient><clipPath id="clippath"><rect x="0" y="13.93" width="116.66" height="86.63" rx="12.81" ry="12.81" style="fill:none;"/></clipPath></defs><path d="M103.66,8.66h-38.4c-2.83,0-5.61-.78-8.03-2.25l-6.83-4.16C47.99.78,45.21,0,42.38,0H13C5.82,0,0,5.82,0,13v74.56C0,94.74,5.82,100.56,13,100.56h90.66c7.18,0,13-5.82,13-13V21.66c0-7.18-5.82-13-13-13Z" style="fill:url(#linear-gradient);"/><g style="clip-path:url(#clippath);"><rect x="0" y="13.93" width="116.66" height="86.63" rx="10.77" ry="10.77" style="fill:#efbfd6;"/><rect x="-2.36" y="97.47" width="121.38" height="2.62" style="fill:#f78bba;"/><path d="M118.52,97.94v1.67H-1.87v-1.67h120.39M119.51,97H-2.86v3.57h122.37v-3.57h0Z" style="fill:#f490c0;"/><rect x="-2.36" y="94.92" width="121.38" height="2.62" style="fill:#fa9bc4;"/><path d="M118.52,95.39v1.67H-1.87v-1.67h120.39M119.51,94.45H-2.86v3.57h122.37v-3.57h0Z" style="fill:#ffbbd9;"/><rect x="-2.36" y="90.3" width="121.37" height="2.62" style="fill:#f2cee5;"/><path d="M118.54,90.77v1.67H-1.88v-1.67h120.43M119.49,89.82H-2.83v3.57h122.32v-3.57h0Z" style="fill:#ffdcf0;"/><rect x="-2.36" y="92.46" width="121.38" height="2.62" style="fill:#ffbbd9;"/><path d="M118.52,92.93v1.67H-1.87v-1.67h120.39M119.51,91.98H-2.86v3.57h122.37v-3.57h0Z" style="fill:#f4d4e6;"/></g></svg>